<svg xmlns="http://www.w3.org/2000/svg" width="20" height="20" viewBox="0 0 20 20"><defs><style>.a{fill:#0091e6;}</style></defs><path class="a" d="M65.592,59a6.253,6.253,0,0,0,.051-1c0-.35-.051-.65-.051-1l2.147-1.65a.459.459,0,0,0,.1-.65L65.8,51.251a.5.5,0,0,0-.614-.2l-2.557,1a7.443,7.443,0,0,0-1.738-1l-.358-2.65a.548.548,0,0,0-.511-.4H55.926a.548.548,0,0,0-.511.4l-.409,2.65a8.66,8.66,0,0,0-1.739,1l-2.557-1a.479.479,0,0,0-.614.2L48.051,54.7a.6.6,0,0,0,.1.65l2.2,1.65c0,.35-.051.65-.051,1s.051.65.051,1L48.2,60.651a.459.459,0,0,0-.1.65l2.046,3.45a.5.5,0,0,0,.614.2l2.557-1a7.442,7.442,0,0,0,1.738,1l.409,2.65a.5.5,0,0,0,.511.4h4.091a.548.548,0,0,0,.511-.4l.41-2.65a8.655,8.655,0,0,0,1.738-1l2.557,1a.479.479,0,0,0,.614-.2l2.046-3.45a.6.6,0,0,0-.1-.65L65.592,59Zm-7.62,2.5a3.5,3.5,0,1,1,3.58-3.5A3.518,3.518,0,0,1,57.972,61.5Z" transform="translate(-47.998 -48.001)"/></svg>